# xmcd
#
# Track frame offsets: 
#        150
#        23707
#        49078
#        70900
#        92154
#        115934
#        134511
#        157327
#        173855
#        194765
#        214088
#
# Disc length: 3335 seconds
#
# Revision: 0
# Processed by: cddbd v1.5.2PL0 Copyright (c) Steve Scherf et al.
# Submitted via: ExactAudioCopyFreeDBPlugin 1.0
#
DISCID=a60d050b
DTITLE=The Ramblers - Plug and pray
DYEAR=2013
DGENRE=Blues
TTITLE0=Bring it on home
TTITLE1=Cadillac Walk
TTITLE2=Spider and the fly
TTITLE3=You don't have to go
TTITLE4=Honest I do
TTITLE5=Build it right on the ground
TTITLE6=I just want to make love to you
TTITLE7=Sailing shoes
TTITLE8=St. James infirmary blues
TTITLE9=You shouldn't do it
TTITLE10=Five long years
EXTD=
EXTT0=
EXTT1=
EXTT2=
EXTT3=
EXTT4=
EXTT5=
EXTT6=
EXTT7=
EXTT8=
EXTT9=
EXTT10=
PLAYORDER=
